<?xml version="1.0" encoding="utf-8"?>
<!-- Generator: Adobe Illustrator 16.0.3, SVG Export Plug-In . SVG Version: 6.00 Build 0)  -->
<!DOCTYPE svg PUBLIC "-//W3C//DTD SVG 1.1//EN" "http://www.w3.org/Graphics/SVG/1.1/DTD/svg11.dtd">
<svg version="1.1" id="Capa_1" xmlns="http://www.w3.org/2000/svg" xmlns:xlink="http://www.w3.org/1999/xlink" x="0px" y="0px"
	 width="510.236px" height="612px" viewBox="0 0 510.236 612" enable-background="new 0 0 510.236 612" xml:space="preserve">
<g>
	<defs>
		<path id="SVGID_1_" d="M289.991,163.564c-0.239,0.002-0.478,0.002-0.716,0.001c0.11-0.228,0.222-0.453,0.325-0.686
			C289.728,163.112,289.855,163.341,289.991,163.564 M218.632,158.75c-5.24,1.712-9.978,4.5-13.623,7.902
			c-2.795,0.072-5.597,0.053-8.394,0.039c-0.023-0.322-0.049-0.645-0.091-0.965c4.123-1.798,7.703-4.377,10.436-7.881h11.305
			C218.382,158.148,218.502,158.45,218.632,158.75 M295.643,176.714c-0.47-0.219-0.931-0.442-1.389-0.671
			c-2.275-2.342-4.483-4.714-6.588-7.135c0.183-0.088,0.355-0.215,0.458-0.429c0.135-0.252,0.08-0.487-0.054-0.692
			c0.03,0.005,0.067,0.011,0.104,0.017c1.902,0.819,3.915,1.464,5.665,1.916c0.742,0.192,1.586,0.402,2.452,0.551
			c2.771,2.002,6.025,3.537,9.574,4.654c-0.057-0.001-0.105-0.015-0.16-0.015c-0.096,0-0.189,0-0.281,0
			C302.104,174.91,298.623,175.544,295.643,176.714 M169.357,177.132c-0.587,0.088-1.175,0.209-1.75,0.359
			c0.801-0.429,1.604-0.858,2.392-1.31C169.761,176.479,169.558,176.806,169.357,177.132 M293.19,178.076
			c-0.012,0.006-0.024,0.015-0.03,0.026c-0.013-0.039-0.024-0.076-0.037-0.113C293.141,178.016,293.166,178.05,293.19,178.076
			 M199.536,173.703c-0.162,0.319,0.004,0.691,0.407,0.836c-0.728,0.251-1.455,0.496-2.19,0.728
			c-5.213,1.643-10.693,2.921-16.063,4.245c0.238-1.622-4.832-2.122-6.185-2.277c-0.255-0.034-0.52-0.028-0.782-0.033
			c-0.013-0.027-0.024-0.061-0.041-0.093c-0.322-0.775-0.688-2.063-1.454-2.829c1.03-0.623,2.031-1.268,3.036-1.911
			c2.45,0.045,5.184-0.477,7.345-1.388c1.421-0.317,2.758-0.77,3.909-1.371c-0.471,2.089,0.2,4.573,3.029,5.409
			c2.586,0.764,4.666-2.041,5.341-3.458c0.539-1.137,0.771-2.542,0.757-4.017c2.526,0.028,5.047-0.027,7.549-0.116
			C202.255,169.374,200.661,171.488,199.536,173.703 M258.829,180.487c-0.808-0.045-1.639-0.05-2.457-0.022
			c0.146-0.22,0.237-0.452,0.237-0.696c0.745-0.022,1.486-0.06,2.201-0.108c0.074-0.003,0.165-0.012,0.245-0.012
			C258.975,179.927,258.908,180.208,258.829,180.487 M301.925,185.6c-0.337,0.223-0.635,0.526-0.911,0.845
			c-0.435-0.131-0.863-0.234-1.235-0.244c-1.561-2.25-2.821-4.592-4.35-6.847c0.019-0.022,0.056-0.045,0.074-0.064
			C297.569,181.438,299.7,183.546,301.925,185.6 M256.505,187.981c-0.148-0.476-0.534-0.947-1.04-1.33
			c0.495,0.005,1.021-0.061,1.534-0.188C256.833,186.975,256.669,187.478,256.505,187.981 M305.839,189.016
			c-0.255-0.21-0.523-0.411-0.823-0.593c-0.093-0.053-0.215-0.126-0.344-0.206c-0.036-0.083-0.056-0.171-0.093-0.255
			C304.997,188.321,305.418,188.667,305.839,189.016 M311.597,191.87c-2.326-1.767-4.539-3.616-6.656-5.509
			c0.135-0.038,0.264-0.089,0.374-0.149c0.012,0,0.018-0.005,0.024-0.011c0.196-0.106,0.342-0.275,0.421-0.447
			c0.307-0.613-0.207-1.457-1.156-1.48c-0.041-0.004-0.084-0.004-0.121-0.004c-0.605-0.016-1.052,0.196-1.304,0.499
			c-0.081-0.076-0.171-0.149-0.257-0.229c-1.627-1.516-3.236-3.061-4.826-4.62c1.804,0.878,3.773,1.555,5.806,1.876
			c1.038,0.16,2.328,0.239,3.535,0.103c1.089,0.37,2.178,0.733,3.271,1.102c0.007,0.023-0.006,0.042,0.001,0.064
			c0.031,0.105,0.146,0.212,0.281,0.253c0.209,2.059,1.769,3.868,3.88,5.329c0.83,0.905,1.919,1.746,3.119,2.454
			c-0.423-0.014-0.876-0.024-1.334-0.023C314.936,191.077,313.021,191.219,311.597,191.87 M310.104,192.422
			c-0.074,0.043-0.129,0.099-0.189,0.155c-0.154-0.233-0.313-0.458-0.49-0.683C309.651,192.068,309.871,192.25,310.104,192.422
			 M131.844,221.074c0.278-0.065,0.59-0.187,0.963-0.389c0.877-0.476,1.274-0.732,1.544-0.872c0.132-0.066,0.226-0.103,0.342-0.126
			c0.109-0.027,0.262-0.048,0.478-0.061c0.488-0.042,0.837-0.206,1.113-0.416c0.269-0.198,0.493-0.442,0.789-0.67
			c0.135-0.114,0.293-0.193,0.465-0.304c0.17-0.121,0.329-0.281,0.434-0.523c0.197-0.465,0.213-1.235-0.088-2.789
			c-0.028-0.174-0.069-0.355-0.127-0.533c0.577,0.494,1.196,0.947,1.854,1.307c0.765,0.414,1.42,0.671,1.988,0.813
			c0.588,0.148,1.089,0.162,1.506,0.096c0.624-0.091,1.045-0.362,1.34-0.604c0.146-0.118,0.269-0.229,0.359-0.304
			c0.042-0.037,0.087-0.064,0.111-0.084l0.03-0.009c0.246-0.014,0.66,0.001,1.11-0.051c0.438-0.061,0.923-0.187,1.293-0.495
			c0.21-0.181,0.424-0.275,0.655-0.405c0.227-0.138,0.453-0.318,0.582-0.63c0.109-0.244,0.165-0.575,0.164-1.037
			c-0.006-0.803,0.05-1.008,0.025-1.213c-0.017-0.107-0.055-0.196-0.124-0.318c-0.065-0.125-0.163-0.293-0.314-0.578
			c-0.146-0.275-0.191-0.471-0.239-0.64c-0.038-0.13-0.074-0.257-0.173-0.377c-0.14-0.182-0.392-0.328-0.849-0.504
			c-0.459-0.181-1.151-0.4-2.229-0.718c-0.261-0.075-0.542-0.145-0.831-0.218c-0.759-0.189-1.601-0.355-2.471-0.501
			c0.198-0.022,0.393-0.042,0.602-0.069c2.536-0.317,4.189-0.878,5.253-1.489c1.071-0.601,1.547-1.253,1.75-1.735
			c0.184-0.406,0.098-0.691,0.007-0.902c-0.086-0.213-0.156-0.341-0.05-0.591c0.037-0.107,0.122-0.239,0.258-0.397
			c0.089-0.107,0.158-0.213,0.208-0.321c0.095-0.235,0.077-0.458-0.024-0.649c-0.147-0.279-0.449-0.495-0.751-0.663
			c-0.309-0.167-0.626-0.293-0.821-0.383c-0.287-0.135-0.35-0.201-0.465-0.274c-0.057-0.043-0.117-0.086-0.208-0.123
			c-0.091-0.041-0.209-0.083-0.379-0.129c-0.321-0.094-0.614-0.183-0.785-0.314c-0.164-0.126-0.263-0.284-0.208-0.621
			c0.031-0.144-0.018-0.285-0.134-0.387c-0.118-0.098-0.27-0.164-0.454-0.204c-0.425-0.109-1.034-0.105-1.675-0.034
			c-0.643,0.07-1.322,0.21-1.896,0.411c-0.54,0.186-1.288,0.586-2.125,1.142c0.282-0.72,0.449-1.339,0.465-1.796
			c0.029-0.658,0.014-1.26-0.091-1.722c-0.049-0.235-0.123-0.434-0.228-0.598c-0.103-0.157-0.249-0.29-0.464-0.345l-0.091-0.014
			c-0.117-0.014-0.196-0.023-0.239-0.038c-0.055-0.014-0.061-0.014-0.08-0.027c-0.023-0.022-0.073-0.094-0.154-0.228
			c-0.085-0.136-0.214-0.332-0.422-0.602c-0.322-0.411-0.58-0.621-0.874-0.696c-0.177-0.046-0.355-0.029-0.495,0.013
			c-0.147,0.043-0.27,0.099-0.404,0.15c-0.103,0.038-0.154,0.042-0.197,0.042c-0.035,0-0.067-0.005-0.121-0.019
			c-0.079-0.014-0.202-0.037-0.35-0.023c-0.152,0.015-0.321,0.06-0.538,0.158c-0.084,0.038-0.147,0.038-0.249,0.013
			c-0.197-0.04-0.465-0.236-0.753-0.446c-0.293-0.21-0.6-0.438-0.973-0.538c-0.111-0.023-0.214-0.038-0.328-0.037
			c-0.432,0.01-1.024-0.023-1.647,0.299c-0.62,0.321-1.254,0.961-1.916,2.271c-0.024,0.043-0.043,0.086-0.062,0.127
			c-0.307,0.718-0.307,1.704-0.159,2.8c0.074,0.5,0.177,1.023,0.301,1.55c-3.237-3.221-5.863-6.567-7.997-9.81
			c0.789,0.626,1.615,1.219,2.484,1.769c0.311,0.2,1.113,0.667,1.909,0.999c0.207,0.094,0.414,0.173,0.604,0.238
			c-0.056,0.074-0.103,0.149-0.145,0.237c-0.233,0.555,0.157,1.149,0.881,1.325c0.721,0.175,1.495-0.13,1.729-0.685
			c0.241-0.556-0.152-1.146-0.875-1.324c-0.524-0.131-1.074-0.001-1.43,0.288c-0.183-0.084-0.393-0.182-0.596-0.293
			c-0.722-0.383-1.471-0.859-1.783-1.061c-1.243-0.787-2.406-1.669-3.482-2.592c-1.449-2.321-2.655-4.575-3.645-6.697
			c0.562,0.504,1.15,0.994,1.744,1.475c-0.007,0.098-0.008,0.952,0.836,2.016c0.887,1.124,2.717,2.455,6.411,3.361
			c0.461,0.115,0.955,0.224,1.48,0.321c0.075,0.021,0.155-0.008,0.208-0.056c0.043-0.051,0.049-0.118,0.007-0.174
			c-0.006,0.001-1.054-1.273-2.454-2.63c-0.704-0.682-1.5-1.388-2.307-1.965c-0.801-0.582-1.615-1.046-2.375-1.233
			c-0.315-0.077-0.628-0.111-0.929-0.073c-0.201,0.021-0.391,0.08-0.568,0.167c-0.837-0.681-1.652-1.372-2.422-2.089l-0.03,0.021
			c-0.319-0.708-0.618-1.403-0.895-2.075c-0.118-0.295-0.229-0.576-0.336-0.859l0.026-0.052l-0.055-0.014
			c-0.254-0.643-0.479-1.269-0.686-1.867c0.398,0.354,0.794,0.71,1.211,1.051c-0.045,0.246-0.094,0.938,0.529,1.787
			c0.76,1.054,2.498,2.319,6.388,3.27c0.072,0.019,0.146,0,0.201-0.037c0.052-0.042,0.07-0.102,0.043-0.158
			c0-0.006-0.476-1.051-1.341-2.198c-0.878-1.147-2.137-2.407-3.782-2.819c-0.527-0.124-1.097-0.163-1.684-0.078
			c-0.607-0.504-1.194-1.019-1.755-1.545l-0.057,0.038c-0.512-1.54-0.896-2.889-1.177-3.998l1.545,1.482
			c0.172,0.169,0.618,0.556,1.03,0.901c-0.095,0.061-0.186,0.131-0.252,0.213c-0.068,0.074-0.116,0.155-0.154,0.239
			c-0.22,0.522,0.104,1.121,0.789,1.47c0.158,0.079,0.331,0.14,0.498,0.181c0.685,0.17,1.425,0.033,1.804-0.405
			c0.072-0.079,0.121-0.165,0.153-0.248c0.219-0.518-0.105-1.119-0.79-1.464c-0.159-0.08-0.324-0.14-0.495-0.184
			c-0.44-0.106-0.901-0.089-1.278,0.057c-0.351-0.392-0.765-0.816-0.937-0.984l-2.092-2.012c-0.172-0.68-0.281-1.246-0.361-1.671
			c0.16-0.008,0.332-0.031,0.508-0.064c0.354-0.075,0.558-0.061,0.717-0.018c0.124,0.029,0.231,0.078,0.365,0.14
			c0.129,0.063,0.287,0.13,0.494,0.186c0.093,0.018,0.193,0.037,0.301,0.052c0.373,0.041,0.74-0.014,1.047-0.155
			c0.301-0.145,0.538-0.372,0.668-0.676c0.074-0.163,0.108-0.347,0.109-0.552c0.006-0.284,0.049-0.499,0.127-0.68
			c0.1-0.235,0.251-0.426,0.424-0.663c0.182-0.234,0.383-0.508,0.575-0.896c0.084-0.187,0.172-0.359,0.25-0.527
			c0.624,0.363,1.344,0.687,2.139,0.957c1.66,0.574,4.143,0.849,5.94,0.244c-0.483,1.376,0.43,2.836,2.936,3.182
			c4.577,0.621,9.227-0.924,12.204-3.527c-0.398,1.522,0.411,3.187,2.52,3.651c1.976,0.427,4.387-0.553,5.844-1.466
			c1.498-0.953,2.887-2.286,4.155-3.522c0.566,1.601,2.696,3.154,4.812,2.65c3.782-0.898,6.742-4.366,6.988-7.428
			c0.874,0.803,1.682,1.311,2.441,1.602c-1.477,1.342-2.78,2.775-3.831,4.282c-0.275,0.396,0.129,0.803,0.624,0.906
			c0.227,0.042,0.446,0.083,0.669,0.126c0.358,0.85,1.259,1.422,2.343,1.794c-0.228,0.149-0.417,0.317-0.548,0.553
			c-0.066,0.107-0.047,0.256,0.051,0.344c1.363,1.214,3.879,1.55,6.074,1.715c-0.449,0.278-0.887,0.569-1.333,0.843
			c-0.112,0.066-0.215,0.127-0.321,0.186c-0.163-0.33-0.54-0.615-1.131-0.689c-0.043-0.008-0.085-0.015-0.127-0.019
			c-0.93-0.122-1.657,0.626-1.529,1.274c0.037,0.172,0.133,0.365,0.288,0.5c0.012,0.004,0.017,0.008,0.023,0.014
			c0.092,0.078,0.208,0.148,0.33,0.204c-2.589,1.523-5.25,2.982-7.989,4.355c-1.573-1.106-4.142-1.518-6.117-1.761
			c-1.872-0.238-5.481-0.378-6.33,1.359c-1.03,2.104,1.864,2.901,4.048,3.121c0.847,0.079,1.659,0.09,2.459,0.038
			c-0.978,0.425-1.958,0.845-2.96,1.245c-0.026-0.093-0.087-0.185-0.184-0.275c-0.753-0.681-2.135,0.201-1.408,0.886
			c-1.634,0.627-3.284,1.219-4.96,1.774c-2.999-0.649-5.898-0.565-8.761,0.349c-2.171,0.695-4.215,2.287-2.477,4.036
			c1.407,1.409,4.448,0.326,5.989-0.283c2.238-0.892,4.172-2.101,5.837-3.538c0.007-0.004,0.007-0.009,0.007-0.014
			c1.498-0.412,2.971-0.854,4.426-1.34c-2.291,1.769-5.408,4.97-2.696,6.38c2.164,1.127,4.343-0.286,5.119-1.784
			c0.569-1.091,1.378-4.499-0.391-5.277c2.629-0.948,5.181-2.006,7.676-3.163c-0.642,0.551-1.211,1.139-1.668,1.763
			c-0.098,0.136-0.024,0.308,0.196,0.331c0.654,0.066,1.168,0.061,1.71-0.023c-0.892,0.647-1.785,1.38-2.201,2.25
			c-0.521,1.101,0.613,1.485,2.222,1.516c-0.344,0.331-0.63,0.63-0.691,1.063c-0.034,0.118,0.045,0.252,0.182,0.317
			c2.263,1.094,5.812,0.388,8.191-0.023c2.543-0.437,5.225-1.632,7.084-3.102c2.379-1.203,4.289-2.805,4.919-4.811
			c0.139-0.023,0.282-0.111,0.325-0.214c0.009-0.024,0.005-0.042,0.01-0.065c5.557-1.119,11.037-2.184,16.422-3.764
			c0.8-0.234,1.59-0.495,2.367-0.757c-1.047,0.757-1.928,1.679-2.773,2.548c-2.043,2.1-3.804,4.34-5.86,6.429
			c-1.742-0.144-4.685,1.177-5.629,1.578c-0.36,0.153-0.695,0.342-1.02,0.536c-5.211,1.75-8.124,6.785-7.287,10.962
			c0.03,0.153,0.233,0.257,0.426,0.172c0.566-0.252,0.962-0.5,1.329-0.816c-0.182,0.929-0.298,1.922,0.069,2.805
			c0.475,1.116,1.676,0.875,2.97,0.148c0,0.43,0.008,0.797,0.315,1.172c0.071,0.103,0.243,0.182,0.401,0.169
			c2.668-0.202,4.895-2.412,6.443-3.855c1.666-1.535,2.82-3.729,3.101-5.769c0.918-2.056,1.132-4.217,0.02-6.099
			c0.092-0.083,0.129-0.218,0.085-0.321c-0.105-0.215-0.27-0.369-0.471-0.482c1.791-1.414,3.229-3.121,4.656-4.745
			c1.533-1.764,3.363-3.22,5.137-4.787c1.445,0.107,2.894,0.169,4.338,0.193c-0.006,0.031-0.03,0.068-0.031,0.101
			c-0.079,0.952,0.409,1.792,1.396,2.39c0.629,0.387,1.51,0.77,2.397,0.904c-0.666,0.473-1.068,1.126-0.66,1.83
			c0.574,0.998,1.901,1.549,3.216,1.942c-2.176,1.054-4.128,2.471-4.788,4.418c-0.235,0.699-0.075,1.211,0.304,1.572
			c-1.969,2.515-2.587,5.754-1.609,8.47c0.055,0.149,0.269,0.233,0.449,0.13c0.525-0.298,0.882-0.578,1.191-0.924
			c-0.036,0.934,0.006,1.937,0.507,2.771c0.638,1.064,1.801,0.724,2.973-0.111c0.068,0.42,0.134,0.787,0.485,1.134
			c0.095,0.094,0.274,0.155,0.428,0.13c2.618-0.444,4.495-2.842,5.811-4.408c0.288-0.336,0.539-0.71,0.776-1.089
			c1.272-0.143,2.491-0.727,3.519-1.258c2.323-1.205,3.97-2.702,5.192-4.405c-0.397,1.796-0.379,3.664,0.234,5.353
			c0.813,2.216,2.25,4.527,5.039,5.623c2.111,0.835,3.318-0.4,3.548-1.741c1.131,1.186,3.694,2.007,5.229,1.158
			c1.017-0.559,1.553-1.377,1.536-2.338c-0.018-0.615-0.189-1.381-0.616-1.988c0.899,0.09,1.816-0.083,2.275-0.773
			c0.8-1.232,0.146-2.719-0.471-3.916c-0.202-0.407-0.441-0.789-0.684-1.156c0.611,0.274,1.24,0.527,1.895,0.723
			c2.808,0.85,6.081,1.367,8.918,0.332c0.412-0.149,0.699-0.332,0.925-0.522c-0.067,0.187-0.123,0.373-0.182,0.566
			c-0.039,0.092-0.075,0.189-0.11,0.289c-0.393-0.197-0.925-0.251-1.457-0.047c-0.032,0.02-0.074,0.033-0.109,0.041
			c-0.851,0.328-0.852,1.256-0.24,1.722c0.165,0.126,0.392,0.235,0.624,0.268c0.006,0.003,0.02,0.004,0.031,0.008
			c0.134,0.02,0.28,0.019,0.421,0.014c-0.898,2.393-1.903,4.773-3.039,7.122c-2.119-0.177-4.511,0.659-6.291,1.358
			c-1.688,0.658-4.689,2.183-4.026,3.959c0.814,2.162,3.763,1.491,5.682,0.678c0.747-0.318,1.414-0.682,2.008-1.088
			c-0.453,0.789-0.911,1.574-1.401,2.344c-0.099-0.061-0.22-0.108-0.369-0.133c-1.135-0.208-1.558,1.125-0.433,1.346
			c-0.831,1.245-1.694,2.473-2.618,3.671c-2.912,0.845-5.183,2.225-6.767,4.261c-1.204,1.544-1.609,3.751,1.149,4.366
			c2.235,0.5,3.837-1.753,4.602-2.943c1.1-1.731,1.714-3.58,1.939-5.488c0-0.005-0.008-0.01-0.008-0.014
			c0.882-1.013,1.72-2.04,2.51-3.083c-0.465,2.459-0.472,6.443,2.809,6.349c2.618-0.073,3.266-2.196,2.722-3.755
			c-0.391-1.133-2.391-4.242-4.424-4.065c1.409-1.997,2.663-4.054,3.782-6.164c0.624,0.219,1.479,0.112,1.597-0.517
			c0.007-0.024,0.012-0.047,0.013-0.071c0.103-0.536-0.313-0.892-0.821-0.984c0.949-1.904,1.805-3.839,2.581-5.811
			c0.259,1.859,1.133,3.786,2.062,5.251c0.943,1.479,4.019,4.56,6.472,2.725c2.534-1.884,1.941-4.497-0.004-6.484
			c-1.097-1.121-2.552-2.054-4.034-2.868c-0.86-0.475-2.163-1.349-3.375-1.619c0.576-1.634,1.089-3.284,1.578-4.94
			c0.526-0.396,0.868-0.886,0.893-1.432c0.009-0.336-0.078-0.653-0.206-0.957c0.036-0.15,0.086-0.295,0.128-0.445
			c0.121,0.057,0.244,0.113,0.404,0.146c1.792,0.325,2.451-1.792,0.667-2.12c-0.166-0.027-0.307-0.019-0.453-0.008
			c-0.018-0.024-0.055-0.04-0.075-0.063c0.104-0.395,0.196-0.795,0.297-1.198c1.187-0.107,2.532-0.262,3.95-0.481
			c0.093,0.197,0.183,0.403,0.281,0.594c0.955,1.926,3.268,3.888,6.112,3.746c-0.846,1.349-1.12,2.912-1.011,4.506
			c-0.447,2.022-0.111,4.379,0.935,6.198c0.987,1.703,2.35,4.294,4.846,5.041c0.147,0.041,0.336,0.005,0.452-0.075
			c0.423-0.303,0.557-0.659,0.71-1.068c0.99,0.964,2.068,1.44,2.911,0.466c0.668-0.77,0.913-1.75,1.073-2.68
			c0.231,0.378,0.525,0.695,0.984,1.055c0.152,0.122,0.38,0.065,0.47-0.078c2.277-3.849,1.267-9.296-3.132-12.053
			c-0.244-0.259-0.501-0.51-0.793-0.729c-0.724-0.548-2.864-2.245-4.559-2.624c0.251-1.128-0.049-2.463-0.361-3.263
			c-0.159-0.415-0.385-0.838-0.654-1.273c0.135-0.061,0.251-0.13,0.386-0.194c2.282,0.792,4.699,1.43,7.194,1.921
			c0.012,0.299,0.036,0.588,0.087,0.858c0.279,1.499,1.559,4.569,4.304,4.225c2.595-0.327,3.928-2.124,4.308-3.977
			c1.188,0.08,2.379,0.131,3.572,0.15c0.343,0.01,0.582-0.15,0.717-0.355c0.287,0.228,0.679,0.359,1.105,0.332
			c0.307,0.42,0.606,0.855,0.876,1.302c1.075,1.773,2.146,3.63,3.634,5.241c-0.227,0.089-0.422,0.218-0.563,0.42
			c-0.067,0.092-0.056,0.232,0.019,0.33c-1.486,1.726-1.714,3.877-1.225,6.024c-0.135,2.044,0.559,4.354,1.885,6.065
			c1.239,1.607,2.991,4.056,5.584,4.57c0.153,0.033,0.336-0.022,0.441-0.116c0.372-0.337,0.452-0.706,0.538-1.121
			c1.131,0.868,2.276,1.25,2.967,0.201c0.546-0.821,0.63-1.82,0.644-2.758c0.293,0.355,0.635,0.645,1.143,0.96
			c0.179,0.108,0.391,0.029,0.459-0.121c0.874-2.114,0.777-4.586-0.214-6.798c0.373,0.008,0.752-0.14,1.004-0.365
			c2.172,1.56,4.44,3.029,6.814,4.396c-1.945,0.486-2.069,3.949-1.805,5.101c0.361,1.591,2.109,3.312,4.532,2.547
			c3.034-0.958,0.844-4.573-0.922-6.663c1.288,0.7,2.61,1.368,3.968,2.002c0.007,0.009,0,0.013,0.007,0.013
			c1.249,1.667,2.809,3.155,4.766,4.373c1.341,0.841,4.03,2.378,5.786,1.214c2.166-1.437,0.595-3.318-1.346-4.334
			c-2.558-1.344-5.37-1.877-8.478-1.713c-1.493-0.804-2.956-1.643-4.387-2.511c0.9-0.555-0.214-1.633-1.131-1.083
			c-0.122,0.071-0.201,0.15-0.258,0.239c-0.868-0.551-1.719-1.117-2.561-1.686c0.769,0.174,1.565,0.299,2.421,0.347
			c2.19,0.13,5.237-0.196,4.795-2.422c-0.012-0.042-0.041-0.08-0.055-0.122c1.841,0.472,3.866,0.785,5.5,0.248
			c0.147-0.046,0.25-0.173,0.251-0.291c0.024-0.437-0.202-0.765-0.472-1.137c1.596,0.163,2.796-0.086,2.509-1.233
			c-0.239-0.904-0.974-1.734-1.725-2.482c0.525,0.145,1.027,0.215,1.688,0.225c0.221,0.004,0.331-0.159,0.258-0.304
			c-1.914-3.972-7.685-7.316-13.367-6.901c-0.392-0.055-0.788-0.098-1.193-0.098c-1.364-0.006-6.471-0.114-6.569,1.516
			c-0.881-0.345-1.775-0.682-2.661-1.022c1.518-0.271,2.802-0.924,3.146-2.248c0.396-1.555-0.472-2.891-1.921-3.729
			c6.031,1.399,12.698,1.75,19.245,1.266c0.515-0.039,0.997-0.396,0.801-0.822c-0.465-1.021-1.052-2.02-1.7-3.005
			c0.036-0.209-0.021-0.447-0.221-0.722c-0.25-0.355-0.587-0.667-0.966-0.958c0.794-0.199,1.693-0.606,2.716-1.286
			c-0.381,3.05,1.835,6.826,5.391,8.166c1.981,0.745,4.408-0.542,5.29-2.053c0.997,1.372,2.104,2.855,3.388,3.974
			c1.249,1.074,3.438,2.326,5.474,2.138c2.179-0.2,3.317-1.757,3.233-3.308c2.413,2.93,6.697,5.004,11.341,4.929
			c2.546-0.042,3.743-1.376,3.547-2.792c1.652,0.812,4.16,0.831,5.909,0.463c3.06-0.644,5.206-1.93,5.807-4.372
			c0.868-3.504-3.126-7.228-7.672-7.995c1.494-1.035,1.909-2.925,0.478-4.46c-2.184-2.338-7.695-2.917-11.817-2.575
			c0.172-0.105,0.318-0.21,0.458-0.319c6.804-0.19,13.771-1.796,20.114-4.259h5.934c0.031,0.107,0.051,0.216,0.062,0.331
			c0.019,0.149,0.044,0.319,0.123,0.509c0.067,0.159,0.177,0.336,0.349,0.527c0.122,0.135,0.2,0.279,0.269,0.435
			c0.057,0.125,0.1,0.261,0.159,0.396c0.142,0.331,0.367,0.704,0.917,1.082c0.557,0.373,1.433,0.755,2.888,1.153
			c0.301,0.08,0.605,0.136,0.912,0.165c-0.306,0.532-0.509,1.04-0.588,1.446c-0.147,0.812-0.018,1.394,0.245,2.007
			c0.11,0.261,0.244,0.526,0.384,0.821c0.197,0.388,0.398,0.663,0.575,0.896c0.179,0.239,0.325,0.43,0.422,0.664
			c0.08,0.181,0.129,0.396,0.137,0.681c-0.002,0.206,0.035,0.387,0.109,0.551c0.122,0.305,0.362,0.532,0.667,0.677
			c0.301,0.14,0.666,0.195,1.04,0.155c0.117-0.015,0.215-0.035,0.306-0.053c0.208-0.057,0.362-0.122,0.496-0.187
			c0.135-0.06,0.245-0.111,0.366-0.139c0.16-0.043,0.36-0.057,0.709,0.017c0.186,0.033,0.351,0.058,0.515,0.065
			c-0.079,0.426-0.197,0.989-0.361,1.671l-2.1,2.012c-0.171,0.167-0.579,0.592-0.934,0.983c-0.375-0.143-0.839-0.163-1.28-0.056
			c-0.164,0.043-0.33,0.103-0.494,0.182c-0.681,0.346-1.011,0.947-0.79,1.466c0.037,0.084,0.085,0.168,0.153,0.248
			c0.386,0.439,1.124,0.575,1.804,0.405c0.173-0.042,0.336-0.102,0.496-0.182c0.685-0.349,1.009-0.947,0.789-1.47
			c-0.03-0.084-0.08-0.163-0.146-0.237c-0.074-0.083-0.159-0.154-0.252-0.215c0.41-0.345,0.852-0.732,1.022-0.9l1.549-1.485
			c-0.283,1.113-0.662,2.459-1.182,4l-0.055-0.038c-0.563,0.528-1.15,1.042-1.751,1.546c-0.594-0.085-1.156-0.048-1.682,0.078
			c-1.646,0.411-2.911,1.672-3.787,2.819c-0.868,1.146-1.341,2.192-1.341,2.196c-0.023,0.057-0.012,0.117,0.038,0.16
			c0.061,0.036,0.135,0.056,0.208,0.036c3.885-0.951,5.629-2.215,6.386-3.269c0.62-0.849,0.569-1.541,0.532-1.788
			c0.409-0.342,0.815-0.696,1.213-1.05c-0.215,0.597-0.441,1.223-0.691,1.867l-0.049,0.014l0.023,0.051
			c-0.109,0.283-0.219,0.564-0.343,0.858c-0.271,0.673-0.568,1.368-0.887,2.077l-0.038-0.023c-0.77,0.718-1.583,1.41-2.421,2.091
			c-0.179-0.089-0.367-0.145-0.569-0.168c-0.294-0.038-0.611-0.004-0.924,0.073c-0.765,0.187-1.572,0.65-2.38,1.231
			c-0.8,0.58-1.595,1.285-2.299,1.965c-1.407,1.359-2.455,2.632-2.455,2.632c-0.042,0.057-0.042,0.122,0.006,0.174
			c0.05,0.047,0.129,0.076,0.209,0.055c0.525-0.099,1.016-0.204,1.474-0.322c3.702-0.905,5.525-2.235,6.419-3.359
			c0.843-1.063,0.844-1.917,0.838-2.015c0.593-0.481,1.173-0.971,1.742-1.475c-0.99,2.123-2.196,4.376-3.652,6.696
			c-1.07,0.924-2.238,1.805-3.474,2.594c-0.313,0.201-1.064,0.677-1.787,1.059c-0.207,0.113-0.408,0.21-0.599,0.294
			c-0.35-0.29-0.905-0.42-1.426-0.29c-0.721,0.178-1.114,0.77-0.881,1.325c0.238,0.555,1.015,0.857,1.738,0.687
			c0.716-0.179,1.112-0.771,0.873-1.326c-0.037-0.089-0.084-0.163-0.146-0.239c0.195-0.064,0.403-0.144,0.612-0.238
			c0.788-0.332,1.596-0.797,1.907-0.998c0.868-0.55,1.695-1.142,2.478-1.769c-2.128,3.244-4.759,6.589-7.989,9.81
			c0.122-0.529,0.22-1.052,0.294-1.55c0.146-1.096,0.146-2.083-0.153-2.8c-0.018-0.042-0.042-0.084-0.061-0.127
			c-0.66-1.311-1.297-1.95-1.92-2.271c-0.625-0.324-1.211-0.291-1.646-0.301c-0.11,0-0.221,0.015-0.324,0.038
			c-0.38,0.097-0.688,0.325-0.976,0.537c-0.285,0.208-0.563,0.406-0.757,0.448c-0.099,0.021-0.16,0.021-0.245-0.015
			c-0.214-0.098-0.392-0.146-0.544-0.158c-0.142-0.015-0.265,0.009-0.344,0.022c-0.054,0.014-0.085,0.02-0.127,0.019
			c-0.037,0-0.092-0.004-0.196-0.041c-0.127-0.053-0.258-0.109-0.405-0.15c-0.139-0.043-0.311-0.06-0.489-0.014
			c-0.298,0.075-0.551,0.285-0.873,0.696c-0.214,0.271-0.337,0.466-0.423,0.602c-0.079,0.135-0.134,0.206-0.158,0.229
			c-0.018,0.013-0.023,0.014-0.073,0.027c-0.044,0.014-0.122,0.024-0.238,0.038l-0.099,0.014c-0.213,0.056-0.354,0.186-0.464,0.346
			c-0.105,0.162-0.173,0.364-0.228,0.599c-0.104,0.46-0.116,1.062-0.087,1.721c0.019,0.456,0.184,1.076,0.46,1.795
			c-0.839-0.555-1.584-0.957-2.117-1.144c-0.575-0.199-1.261-0.34-1.896-0.409c-0.648-0.071-1.249-0.077-1.683,0.031
			c-0.177,0.042-0.337,0.107-0.453,0.206c-0.108,0.104-0.165,0.242-0.134,0.387c0.061,0.336-0.035,0.496-0.208,0.622
			c-0.172,0.13-0.458,0.218-0.782,0.313c-0.167,0.046-0.289,0.088-0.374,0.13c-0.09,0.037-0.158,0.08-0.213,0.121
			c-0.11,0.075-0.171,0.139-0.46,0.276c-0.196,0.088-0.514,0.214-0.819,0.383c-0.306,0.167-0.613,0.381-0.759,0.663
			c-0.099,0.191-0.116,0.415-0.019,0.647c0.045,0.109,0.111,0.217,0.203,0.323c0.135,0.158,0.22,0.289,0.264,0.396
			c0.102,0.252,0.036,0.378-0.05,0.592c-0.094,0.212-0.179,0.496,0,0.902c0.202,0.48,0.684,1.133,1.748,1.733
			c1.07,0.614,2.723,1.172,5.261,1.491c0.202,0.027,0.397,0.046,0.6,0.069c-0.875,0.146-1.72,0.313-2.478,0.5
			c-0.287,0.076-0.563,0.146-0.826,0.219c-1.075,0.317-1.767,0.537-2.231,0.718c-0.458,0.178-0.704,0.323-0.851,0.503
			c-0.099,0.123-0.13,0.249-0.166,0.38c-0.049,0.168-0.098,0.363-0.244,0.639c-0.146,0.284-0.251,0.451-0.312,0.579
			c-0.067,0.121-0.11,0.21-0.129,0.316c-0.024,0.207,0.037,0.411,0.03,1.214c0,0.461,0.056,0.793,0.158,1.035
			c0.135,0.313,0.362,0.496,0.59,0.632c0.223,0.128,0.444,0.223,0.652,0.405c0.367,0.307,0.856,0.434,1.295,0.495
			c0.448,0.051,0.865,0.036,1.109,0.051l0.024,0.01c0.024,0.019,0.067,0.047,0.115,0.083c0.093,0.075,0.209,0.188,0.363,0.305
			c0.292,0.243,0.716,0.513,1.339,0.606c0.415,0.065,0.911,0.051,1.499-0.098c0.567-0.141,1.223-0.396,1.992-0.812
			c0.662-0.36,1.28-0.813,1.851-1.308c-0.05,0.177-0.092,0.36-0.124,0.533c-0.306,1.555-0.283,2.324-0.086,2.79
			c0.099,0.242,0.257,0.403,0.43,0.523c0.17,0.113,0.329,0.192,0.471,0.303c0.293,0.229,0.514,0.473,0.789,0.673
			c0.273,0.209,0.623,0.373,1.112,0.416c0.215,0.013,0.361,0.032,0.471,0.061c0.115,0.023,0.216,0.06,0.351,0.125
			c0.263,0.14,0.665,0.396,1.541,0.872c0.373,0.202,0.679,0.322,0.96,0.387c0.282,0.062,0.532,0.057,0.745,0.001
			c0.302-0.071,0.521-0.234,0.711-0.383c0.188-0.159,0.359-0.312,0.55-0.417c0.295-0.147,0.423-0.259,0.502-0.355
			c0.078-0.092,0.098-0.128,0.25-0.231c0.104-0.071,0.271-0.16,0.545-0.286c0.582-0.261,1.194-0.662,1.487-1.465
			c0.291-0.807,0.306-2.001-0.209-3.902c-0.09-0.348-0.213-0.694-0.354-1.025c-0.055-0.132-0.116-0.257-0.184-0.388
			c0.747,0.601,1.548,1.166,2.342,1.601c1.17,0.645,2.068,0.995,2.771,1.167c0.703,0.167,1.229,0.148,1.641,0.045
			c0.263-0.066,0.476-0.164,0.647-0.252c0.165-0.088,0.294-0.129,0.416-0.162c0.166-0.038,0.313-0.048,0.484-0.093
			c0.178-0.038,0.372-0.132,0.538-0.309c0.197-0.202,0.313-0.373,0.448-0.495c0.14-0.126,0.281-0.214,0.586-0.288
			c0.05-0.014,0.104-0.024,0.166-0.038c0.232-0.038,0.489-0.09,0.745-0.15c0.336-0.083,0.667-0.191,0.917-0.364
			c0.257-0.172,0.423-0.429,0.386-0.747c-0.03-0.327,0.014-0.536,0.044-0.713c0.031-0.177,0.072-0.341-0.007-0.532
			c-0.018-0.039-0.037-0.066-0.049-0.099c-0.171-0.267-0.453-0.542-0.531-0.746c-0.038-0.084-0.037-0.145-0.019-0.191
			c0.073-0.139,0.128-0.22,0.17-0.339c0.039-0.123,0.019-0.254-0.042-0.441c-0.024-0.074,0-0.116,0.066-0.201
			c0.063-0.088,0.179-0.19,0.239-0.35c0.031-0.106,0.03-0.228-0.026-0.363c-0.022-0.046-0.047-0.097-0.084-0.149
			c-0.189-0.285-0.428-0.571-0.825-0.845c-0.398-0.27-0.948-0.528-1.751-0.762c-0.795-0.233-1.29-0.33-1.847-0.387
			c-0.471-0.052-0.967-0.069-1.718-0.117c1.241-0.312,2.354-0.667,3.071-1.082c0.661-0.387,1.046-0.728,1.229-1.049
			c0.189-0.323,0.171-0.616,0.066-0.859c-0.078-0.187-0.201-0.346-0.312-0.481c-0.104-0.14-0.201-0.257-0.238-0.346
			c-0.018-0.051-0.025-0.088-0.02-0.121c0.031-0.168,0.11-0.275,0.215-0.405c0.098-0.127,0.221-0.28,0.238-0.509
			c0.012-0.148-0.018-0.317-0.109-0.526c-0.025-0.067-0.061-0.132-0.098-0.202c-0.201-0.388-0.435-0.611-0.674-0.747
			c-0.238-0.14-0.477-0.177-0.647-0.22c-0.11-0.028-0.197-0.055-0.258-0.092l-0.05-0.06c-0.03-0.063-0.023-0.201-0.011-0.361
			c0.005-0.167,0.011-0.363-0.073-0.568c-0.072-0.164-0.201-0.332-0.416-0.481c-0.423-0.299-0.845-0.425-1.218-0.514
			c-0.385-0.087-0.709-0.149-0.997-0.289c-0.172-0.079-0.391-0.099-0.691-0.089c-0.287,0.01-0.654,0.06-1.076,0.164
			c-1.028,0.252-2.398,0.827-3.865,1.927c2.979-3.139,5.407-6.369,7.377-9.486c0.043-0.033,0.085-0.07,0.129-0.102l-0.044-0.033
			c0.613-0.971,1.175-1.931,1.702-2.875c-0.066,0.996-0.124,1.989-0.16,2.977c-0.006,0.318,0,1.092,0.054,1.789
			c0.019,0.316,0.056,0.61,0.111,0.844c-0.049,0.003-0.092,0.003-0.129,0.014c-0.391,0.098-0.666,0.345-0.8,0.644
			c-0.142,0.293-0.147,0.645,0.003,1c0.155,0.349,0.425,0.633,0.767,0.82c0.337,0.175,0.753,0.251,1.139,0.159
			c0.384-0.099,0.667-0.34,0.801-0.641c0.134-0.292,0.141-0.647-0.006-1.002c-0.152-0.349-0.43-0.635-0.771-0.815
			c-0.237-0.132-0.526-0.205-0.813-0.201c0.006-0.225,0.011-0.513,0.028-0.822c0.039-0.706,0.068-1.465,0.087-1.778
			c0.037-1.27,0.118-2.543,0.21-3.812l-0.067-0.007c0.709-1.319,1.339-2.603,1.895-3.833c0.008-0.006,0.008-0.01,0.012-0.01
			l-0.004-0.004c0.415-0.907,0.782-1.788,1.12-2.632l1.009,2.347c-0.4,0.373-0.577,0.848-0.564,1.398
			c0.007,0.593,0.21,1.289,0.539,2.063c0.153,0.359,0.337,0.743,0.54,1.139c1.1,2.143,3.796,4.266,3.803,4.27
			c0.05,0.042,0.128,0.06,0.202,0.042c0.073-0.019,0.122-0.065,0.133-0.122c0.001-0.014,0.381-2.08-0.813-4.899
			c-0.061-0.139-0.128-0.285-0.195-0.423c-1.199-2.554-2.704-3.348-3.187-3.542l-1.234-2.871c0.513-1.33,0.935-2.567,1.29-3.682
			c0.195,0.378,0.396,0.76,0.587,1.142c-0.11,0.066-0.201,0.16-0.275,0.281c-0.091,0.168-0.158,0.382-0.177,0.648
			c-0.05,0.525,0.062,1.232,0.422,2.078c0.036,0.093,0.08,0.187,0.127,0.28c0.913,1.926,2.539,3.131,2.552,3.144
			c0.047,0.039,0.12,0.052,0.189,0.038c0.067-0.014,0.116-0.061,0.134-0.113c0-0.009,0.575-1.934-0.188-4.391
			c-0.055-0.181-0.116-0.345-0.184-0.494c-0.366-0.882-0.873-1.306-1.346-1.484c-0.329-0.13-0.629-0.13-0.813-0.107
			c-0.27-0.537-0.545-1.069-0.832-1.604l-0.023,0.014c0.317-1.059,0.563-1.992,0.75-2.782l0.032-0.033l-0.02-0.008
			c0.189-0.775,0.313-1.405,0.399-1.862c0.208-0.009,0.396-0.022,0.588-0.051c0.445-0.07,0.85-0.182,1.294-0.251
			c0.284-0.044,0.51-0.079,0.729-0.135c0.509-0.123,0.924-0.337,1.75-0.911c0.507-0.352,0.942-0.63,1.333-1.04
			c0.195,0.392,0.446,0.872,0.742,1.422c-0.014,0.015-0.039,0.023-0.045,0.038c-0.013,0.018-0.019,0.031-0.03,0.045h-0.024
			l-0.006,0.061c-2.612,4.262-1.75,7.401-1.273,8.519c0.123,0.287,0.22,0.441,0.22,0.452c0.032,0.046,0.1,0.083,0.172,0.083
			c0.074,0.001,0.143-0.027,0.178-0.074c2.24-3.042,2.056-5.935,1.641-7.606c0.788,1.381,1.761,3.01,2.894,4.7
			c0.33,0.495,0.677,0.994,1.033,1.492c0.005,0.032,0.012,0.078,0.018,0.149c0.006,0.132,0.024,0.323,0.025,0.571
			c0.018,0.493,0.012,1.207-0.092,2.065c-0.062,0.5-0.153,1.054-0.289,1.642c-0.048,0.01-0.092,0.032-0.116,0.07l-0.012,0.019
			l-0.037,0.047c-0.03,0.047-0.078,0.107-0.147,0.187c-0.134,0.155-0.329,0.37-0.592,0.592c-0.516,0.463-1.28,0.972-2.245,1.209
			c-0.148,0.034-0.301,0.065-0.448,0.084c-0.378-0.58-1.253-0.879-2.074-0.678c-0.903,0.225-1.394,0.971-1.1,1.661
			c0.301,0.702,1.268,1.083,2.172,0.859c0.862-0.21,1.341-0.886,1.133-1.553c0.152-0.024,0.298-0.052,0.44-0.085
			c1.4-0.349,2.353-1.18,2.855-1.715c-0.305,1.118-0.775,2.346-1.48,3.61c-0.233-0.023-0.478-0.019-0.717,0.044
			c-0.83,0.203-1.289,0.896-1.02,1.534c0.274,0.645,1.175,0.999,2.012,0.793c0.832-0.206,1.29-0.892,1.022-1.535
			c-0.153-0.355-0.496-0.615-0.906-0.746c1.971-3.571,2.093-6.851,2.038-8.223c0.929,1.274,1.944,2.538,3.021,3.724
			c-0.03,0.486-0.115,2.674,0.746,4.708c0.186,0.435,0.411,0.857,0.691,1.261c-0.636,0.336-0.941,0.96-0.684,1.561
			c0.304,0.72,1.295,1.116,2.237,0.906c0.043,0.076,0.072,0.14,0.116,0.214c0.257,0.466,0.531,1,0.825,1.57l-0.146-0.029
			l-0.056,0.21c-2.195,1.928-3.004,4.443-3.261,6.483c-0.252,2.065,0.049,3.653,0.049,3.663c0.013,0.055,0.061,0.098,0.123,0.115
			c0.065,0.02,0.14,0.011,0.201-0.023c2.453-1.6,3.267-4.167,3.481-6.317c0.16-1.558,0-2.898-0.104-3.533
			c0.58,1.158,1.198,2.463,1.798,3.865c0.274,0.645,0.543,1.315,0.801,1.991c-0.001,0.034,0.006,0.071,0.037,0.102
			c0.519,1.382,0.983,2.81,1.339,4.219c-0.44,0.304-2.862,2.076-3.799,4.611c-0.299-0.062-0.623-0.064-0.937,0.013
			c-0.086,0.021-0.165,0.046-0.244,0.075c-0.746,0.29-1.089,0.954-0.832,1.545c0.024,0.065,0.061,0.126,0.097,0.186
			c0.381,0.579,1.244,0.842,2.021,0.65c0.078-0.019,0.159-0.042,0.237-0.069c0.753-0.29,1.09-0.954,0.84-1.544
			c-0.032-0.066-0.062-0.126-0.104-0.192c-0.162-0.243-0.416-0.429-0.712-0.552c0.803-2.205,2.822-3.853,3.519-4.372
			c0.019,0.07,0.031,0.137,0.049,0.201c-0.037,0.053-0.024,0.122,0.038,0.168c0.628,2.794,0.776,5.477-0.002,7.555
			c-0.331-0.052-0.679-0.043-1.01,0.037c-0.091,0.025-0.188,0.057-0.281,0.089c-0.881,0.34-1.29,1.124-0.989,1.825
			c0.03,0.079,0.073,0.149,0.121,0.22c0.447,0.682,1.469,0.998,2.379,0.774c0.099-0.023,0.196-0.056,0.289-0.093
			c0.88-0.336,1.284-1.119,0.984-1.824c-0.03-0.075-0.066-0.145-0.116-0.216c-0.221-0.339-0.588-0.587-1.01-0.724
			c0.765-2.052,0.674-4.618,0.104-7.302c0.024,0.02,0.043,0.033,0.068,0.056c0.328,0.243,0.776,0.603,1.26,1.041
			c0.966,0.878,2.067,2.077,2.604,3.356c0.02,0.051,0.038,0.106,0.061,0.154c-0.041,0.013-0.085,0.023-0.122,0.041
			c-0.808,0.308-1.175,1.021-0.904,1.661c0.031,0.071,0.066,0.137,0.11,0.201c0.409,0.625,1.338,0.906,2.171,0.704
			c0.085-0.024,0.178-0.05,0.258-0.079c0.814-0.317,1.174-1.027,0.904-1.666c-0.03-0.07-0.062-0.134-0.109-0.2
			c-0.366-0.564-1.163-0.85-1.933-0.747c-0.024-0.052-0.036-0.106-0.062-0.159c-1.032-2.413-3.854-4.466-4.411-4.854
			c-0.324-1.417-0.776-2.864-1.277-4.269c1.223,1.008,4.331,3.271,9.017,4.755c-0.141,0.263-0.159,0.562-0.043,0.841
			c0.023,0.06,0.062,0.121,0.099,0.177c0.359,0.547,1.175,0.799,1.908,0.621c0.079-0.024,0.159-0.042,0.232-0.075
			c0.709-0.271,1.027-0.895,0.795-1.46c-0.03-0.064-0.061-0.121-0.104-0.177c-0.362-0.546-1.176-0.803-1.908-0.62
			c-0.074,0.018-0.153,0.042-0.233,0.074c-0.221,0.084-0.403,0.209-0.545,0.354c-1.662-0.521-3.132-1.147-4.38-1.778
			c0.71,0.095,1.842,0.164,2.967-0.111c0.35-0.089,0.705-0.209,1.034-0.379c0.415,0.528,1.242,0.767,1.993,0.579
			c0.08-0.023,0.171-0.041,0.252-0.073c0.766-0.296,1.114-0.977,0.851-1.588c-0.024-0.064-0.055-0.13-0.099-0.186
			c-0.392-0.591-1.272-0.867-2.072-0.672c-0.081,0.019-0.167,0.048-0.247,0.076c-0.765,0.297-1.111,0.976-0.854,1.584
			c0,0,0,0.006,0,0.01c-0.312,0.156-0.643,0.281-0.979,0.361c-1.468,0.363-3.026,0.079-3.383-0.001l-0.08-0.014
			c-0.049-0.014-0.109-0.008-0.152,0.01c-2.557-1.395-4.049-2.725-4.313-2.964c-0.263-0.694-0.537-1.381-0.819-2.048
			c-0.702-1.642-1.438-3.167-2.099-4.461c1.249,1.41,3.781,3.565,8.181,4.528c0.066,0.014,0.147,0,0.194-0.043
			c0.049-0.042,0.068-0.098,0.042-0.149c-0.006-0.028-1.73-3.77-9.016-5.819l-0.063-0.038l-0.013,0.014
			c-0.023-0.004-0.042-0.009-0.067-0.019c-0.019-0.005-0.049-0.001-0.066-0.001c-0.043-0.083-0.092-0.167-0.134-0.245
			c0.74-0.32,1.113-1,0.846-1.645c-0.32-0.728-1.34-1.131-2.289-0.9c-0.042,0.008-0.08,0.028-0.123,0.042
			c-0.268-0.384-0.495-0.79-0.666-1.209c-0.69-1.623-0.759-3.382-0.748-4.209c2.076,2.212,4.376,4.093,6.817,5.144
			c-0.172,0.326-0.209,0.685-0.062,1.049c0.342,0.799,1.461,1.242,2.509,0.985c1.038-0.257,1.608-1.11,1.266-1.913
			c-0.337-0.802-1.462-1.245-2.503-0.991c-0.446,0.108-0.789,0.332-1.027,0.608c-2.472-1.064-4.841-3.053-6.975-5.376
			c-0.005-0.066-0.055-0.117-0.122-0.145c-0.056-0.051-0.109-0.108-0.159-0.163c0.109,0,0.232,0,0.387-0.001
			c0.452,0.011,1.094,0.038,1.834,0.122c1.273,0.145,2.846,0.457,4.313,1.101c-0.098,0.243-0.104,0.514,0.006,0.775
			c0.294,0.681,1.235,1.05,2.122,0.835c0.876-0.213,1.358-0.939,1.072-1.619c-0.289-0.682-1.237-1.055-2.118-0.834
			c-0.409,0.102-0.723,0.306-0.918,0.568c-3.011-1.306-6.374-1.26-6.961-1.242c-0.99-1.133-1.926-2.333-2.794-3.528
			c-0.044-0.065-0.093-0.135-0.136-0.2c-0.012-0.03-0.031-0.057-0.06-0.079c-1.403-1.96-2.607-3.907-3.56-5.563
			c0.505,0.498,1.638,1.541,3.179,2.562c2.142,1.419,5.078,2.809,8.301,2.631c0.08-0.004,0.135-0.042,0.165-0.087
			c0.031-0.052,0.025-0.109-0.025-0.153c0.001-0.006-1.246-1.294-3.339-2.63c-2.068-1.314-4.953-2.678-8.295-2.87l-0.23-0.113
			l-0.074,0.101c-0.753-1.326-1.315-2.418-1.676-3.137c0.03-0.047,0.062-0.088,0.098-0.135c0.165,0.097,0.329,0.198,0.508,0.285
			c1.002,0.509,1.768,0.715,2.38,0.79c0.598,0.074,1.053,0.008,1.405-0.009c0.239-0.011,0.429-0.005,0.618,0.056
			c0.477,0.149,0.802,0.228,1.083,0.261c0.283,0.033,0.515,0.015,0.796-0.009c0.27-0.028,0.379-0.028,0.63,0.008
			c0.25,0.039,0.63,0.124,1.346,0.259c0.484,0.083,0.782,0.111,1.028,0.055c0.121-0.029,0.23-0.098,0.293-0.183
			c0.049-0.082,0.061-0.17,0.061-0.259c-0.006-0.172-0.06-0.375-0.098-0.598c-0.054-0.332-0.029-0.537,0.098-0.868
			c0.128-0.326,0.379-0.774,0.771-1.526c0.403-0.765,0.446-1.223,0.367-1.629c-0.074-0.411-0.238-0.741-0.249-1.348
			c-0.007-0.215-0.067-0.453-0.167-0.695c-0.11-0.253-0.263-0.51-0.464-0.77c0.324,0.162,0.653,0.334,1.003,0.522
			c0.623,0.327,1.289,0.7,1.993,1.105c0.03,0.069,0.068,0.14,0.099,0.21c-0.209,0.087-0.569,0.322-0.84,0.883
			c-0.354,0.721-0.58,1.991-0.218,4.25c0.151,0.957,0.396,1.772,0.691,2.462c1.148,2.712,3.057,3.501,3.094,3.516
			c0.066,0.023,0.146,0.018,0.208-0.014c0.06-0.033,0.084-0.094,0.073-0.154c-0.062-0.205-0.056-0.523,0-0.929
			c0.043-0.401,0.135-0.891,0.22-1.461c0.167-1.139,0.313-2.589,0.093-4.293c-0.085-0.653-0.239-1.213-0.447-1.693
			c-0.299-0.708-0.704-1.236-1.095-1.628c2.092,1.324,4.404,2.987,6.771,5.016c-0.232,0.173-0.379,0.374-0.433,0.591
			c-0.093,0.365,0.006,0.743,0.14,1.07c0.061,0.14,0.129,0.27,0.202,0.387c-0.356,0.377-0.606,0.771-0.772,1.167
			c-0.503,1.202-0.281,2.425-0.238,3.267c0.075,1.529,0.46,3.25,0.539,3.62c-0.191,1.75-0.271,3.491-0.007,4.554
			c0.043,0.14,0.087,0.277,0.136,0.402c0.299,0.69,0.849,1.161,1.517,1.414c0.674,0.249,1.437,0.275,2.159,0.099
			c0.666-0.164,1.29-0.501,1.762-0.994c0.256,0.182,0.536,0.326,0.862,0.4c0.354,0.085,0.758,0.089,1.18-0.013
			c0.147-0.042,0.296-0.089,0.448-0.154c0.494-0.196,0.795-0.477,0.948-0.779c0.018,0.004,0.042,0.009,0.054,0.009
			c0.455,0.073,0.919,0.069,1.396,0.042c0.63-0.038,1.278-0.107,1.877-0.252c0.857-0.21,1.621-0.592,1.994-1.283
			c0.276-0.5,0.344-1.144,0.143-1.978c0.837,0.154,1.638,0.12,2.342-0.058c0.453-0.105,0.876-0.279,1.243-0.483
			c0.483-0.281,0.758-0.725,0.837-1.243c0.067-0.438,0.008-0.929-0.17-1.447c0.141-0.009,0.281-0.017,0.416-0.037
			c0.488-0.074,0.94-0.162,1.352-0.266c1.272-0.312,2.172-0.745,2.703-1.255c0.539-0.5,0.698-1.076,0.465-1.618
			c-0.24-0.57-0.875-1.073-1.858-1.451c-0.797-0.304-2.075-0.631-3.567-0.948c-1.242-0.266-2.618-0.527-3.971-0.771
			c0.006-0.009,0.014-0.018,0.014-0.028c0.006-0.046-0.012-0.093-0.061-0.125c-0.006-0.004-1.076-0.779-2.841-1.388
			c-1.761-0.604-4.231-1.048-6.996-0.368c-0.05,0.009-0.093,0.022-0.136,0.037c-0.11,0.028-0.207,0.056-0.312,0.081
			c-0.111-0.089-0.251-0.187-0.417-0.28c-0.415-0.24-1.045-0.429-1.829-0.323c-0.8-0.709-2.623-2.277-4.93-3.999
			c-0.398-0.299-0.802-0.598-1.224-0.896c0.123,0.033,0.237,0.062,0.373,0.093c1.743,0.386,4.228,0.591,7.127-0.12
			c0.122-0.029,0.245-0.066,0.373-0.094c0.068-0.019,0.117-0.069,0.128-0.122c0.007-0.061-0.023-0.111-0.086-0.148
			c-0.005-0.006-1.185-0.631-2.819-1.158c-1.632-0.523-3.73-0.946-5.592-0.49c-0.543,0.131-1.058,0.342-1.534,0.648
			c-1.547-1.021-3.193-1.988-4.803-2.743c0.098-0.071,0.203-0.142,0.295-0.211c0.69,0.029,1.406,0.01,2.109-0.088
			c0.6-0.083,1.182-0.2,1.738-0.341c1.126-0.274,2.158-0.624,3.083-0.928l89.178,0.005l0.009-157.832L-0.11,0l-0.008,157.833
			l89.179,0.003c0.925,0.304,1.965,0.653,3.083,0.929c0.563,0.142,1.139,0.259,1.744,0.342c0.697,0.098,1.417,0.117,2.108,0.088
			c0.095,0.07,0.192,0.14,0.296,0.211c-1.617,0.755-3.255,1.721-4.809,2.742c-0.471-0.306-0.991-0.518-1.535-0.646
			c-1.854-0.458-3.951-0.034-5.586,0.488c-1.639,0.526-2.812,1.152-2.825,1.157c-0.057,0.037-0.093,0.089-0.08,0.148
			c0.012,0.052,0.055,0.104,0.129,0.121c0.121,0.029,0.25,0.066,0.365,0.094c2.905,0.714,5.386,0.51,7.134,0.121
			c0.136-0.032,0.246-0.06,0.367-0.092c-0.415,0.298-0.825,0.595-1.217,0.896c-2.307,1.722-4.135,3.291-4.936,3.998
			c-0.783-0.105-1.407,0.084-1.83,0.323c-0.171,0.091-0.308,0.19-0.411,0.279c-0.103-0.023-0.209-0.052-0.311-0.079
			c-0.042-0.015-0.092-0.028-0.14-0.038c-2.766-0.682-5.231-0.239-6.993,0.369c-1.762,0.604-2.833,1.381-2.847,1.385
			c-0.041,0.033-0.067,0.079-0.061,0.126c0,0.011,0.013,0.019,0.012,0.029c-1.352,0.244-2.729,0.503-3.97,0.77
			c-1.488,0.317-2.764,0.644-3.561,0.948c-0.984,0.377-1.62,0.881-1.863,1.451c-0.231,0.54-0.07,1.12,0.463,1.62
			c0.537,0.509,1.439,0.942,2.71,1.254c0.411,0.102,0.862,0.192,1.353,0.266c0.132,0.018,0.274,0.028,0.416,0.038
			c-0.177,0.517-0.243,1.007-0.172,1.446c0.081,0.517,0.355,0.961,0.838,1.242c0.366,0.204,0.786,0.378,1.236,0.485
			c0.703,0.177,1.506,0.209,2.35,0.056c-0.208,0.834-0.133,1.479,0.134,1.98c0.378,0.689,1.143,1.071,1.994,1.282
			c0.6,0.144,1.255,0.216,1.883,0.251c0.479,0.029,0.939,0.034,1.391-0.042c0.018,0,0.042-0.004,0.061-0.008
			c0.154,0.304,0.446,0.583,0.941,0.78c0.155,0.064,0.306,0.111,0.452,0.152c0.423,0.104,0.82,0.099,1.175,0.015
			c0.331-0.075,0.611-0.219,0.862-0.402c0.477,0.495,1.094,0.832,1.762,0.995c0.724,0.177,1.493,0.148,2.16-0.1
			c0.667-0.252,1.224-0.722,1.518-1.412c0.055-0.126,0.095-0.263,0.136-0.403c0.265-1.062,0.187-2.803-0.001-4.554
			c0.08-0.369,0.461-2.089,0.536-3.62c0.039-0.841,0.258-2.063-0.242-3.266c-0.162-0.398-0.411-0.789-0.767-1.167
			c0.07-0.116,0.135-0.248,0.198-0.387c0.141-0.327,0.232-0.705,0.141-1.069c-0.056-0.219-0.195-0.419-0.428-0.592
			c2.366-2.03,4.681-3.692,6.771-5.016c-0.398,0.392-0.794,0.921-1.098,1.629c-0.205,0.479-0.367,1.041-0.449,1.695
			c-0.213,1.702-0.068,3.152,0.098,4.291c0.085,0.57,0.176,1.06,0.219,1.461c0.05,0.406,0.063,0.724,0,0.929
			c-0.012,0.06,0.012,0.121,0.067,0.154c0.067,0.033,0.14,0.037,0.215,0.015c0.036-0.014,1.938-0.803,3.094-3.515
			c0.294-0.691,0.54-1.506,0.692-2.463c0.361-2.259,0.136-3.527-0.22-4.251c-0.274-0.56-0.63-0.792-0.839-0.882
			c0.031-0.069,0.061-0.141,0.1-0.209c0.705-0.407,1.371-0.779,1.988-1.106c0.355-0.188,0.687-0.36,1.009-0.523
			c-0.202,0.261-0.354,0.518-0.465,0.771c-0.103,0.242-0.159,0.48-0.166,0.696c-0.013,0.606-0.185,0.937-0.251,1.348
			c-0.076,0.405-0.037,0.863,0.368,1.628c0.391,0.751,0.642,1.199,0.771,1.525c0.129,0.333,0.146,0.538,0.091,0.868
			c-0.032,0.225-0.091,0.426-0.091,0.598c-0.007,0.088,0.007,0.177,0.06,0.262c0.056,0.083,0.167,0.154,0.292,0.182
			c0.242,0.056,0.542,0.028,1.025-0.056c0.723-0.135,1.101-0.22,1.353-0.256c0.25-0.038,0.36-0.038,0.632-0.01
			c0.267,0.023,0.505,0.042,0.792,0.009c0.282-0.032,0.6-0.112,1.083-0.261c0.189-0.06,0.378-0.065,0.618-0.056
			c0.349,0.018,0.801,0.084,1.408,0.01c0.61-0.075,1.37-0.282,2.375-0.788c0.183-0.09,0.348-0.188,0.506-0.285
			c0.036,0.045,0.066,0.088,0.104,0.135c-0.36,0.718-0.931,1.81-1.678,3.135l-0.078-0.099l-0.227,0.113
			c-3.339,0.191-6.233,1.554-8.301,2.869c-2.086,1.335-3.335,2.623-3.34,2.628c-0.043,0.047-0.054,0.104-0.018,0.154
			c0.024,0.045,0.087,0.083,0.159,0.089c3.225,0.178,6.167-1.214,8.302-2.631c1.548-1.022,2.678-2.064,3.187-2.563
			c-0.954,1.657-2.165,3.603-3.56,5.563c-0.031,0.023-0.051,0.05-0.063,0.079c-0.04,0.065-0.089,0.135-0.138,0.202
			c-0.866,1.193-1.801,2.393-2.797,3.527c-0.582-0.02-3.953-0.066-6.957,1.239c-0.193-0.261-0.516-0.467-0.917-0.569
			c-0.879-0.218-1.836,0.153-2.116,0.836c-0.287,0.681,0.188,1.404,1.068,1.619c0.883,0.215,1.831-0.155,2.119-0.836
			c0.109-0.262,0.11-0.532,0.012-0.773c1.462-0.644,3.04-0.958,4.312-1.102c0.741-0.084,1.383-0.112,1.836-0.122
			c0.153,0.001,0.276,0.001,0.379,0c-0.048,0.055-0.098,0.112-0.153,0.163c-0.073,0.028-0.128,0.079-0.128,0.144
			c-2.13,2.326-4.497,4.313-6.968,5.376c-0.239-0.275-0.585-0.499-1.033-0.607c-1.04-0.256-2.159,0.188-2.5,0.991
			c-0.345,0.801,0.23,1.655,1.272,1.914c1.044,0.256,2.158-0.188,2.5-0.986c0.153-0.363,0.118-0.723-0.062-1.049
			c2.442-1.05,4.742-2.93,6.817-5.142c0.016,0.825-0.052,2.584-0.743,4.209c-0.177,0.418-0.396,0.826-0.665,1.208
			c-0.043-0.014-0.083-0.034-0.125-0.042c-0.95-0.234-1.972,0.171-2.286,0.899c-0.27,0.643,0.098,1.325,0.837,1.642
			c-0.042,0.082-0.086,0.164-0.128,0.248c-0.025,0-0.049-0.004-0.074,0c-0.018,0.01-0.042,0.014-0.062,0.02l-0.016-0.014
			l-0.063,0.035c-7.278,2.049-9.005,5.791-9.01,5.819c-0.025,0.051-0.01,0.107,0.042,0.149c0.05,0.042,0.122,0.056,0.197,0.042
			c4.399-0.962,6.928-3.118,8.178-4.526c-0.662,1.293-1.399,2.817-2.097,4.46c-0.281,0.668-0.557,1.354-0.82,2.049
			c-0.262,0.239-1.756,1.568-4.321,2.961c-0.043-0.018-0.098-0.021-0.153-0.007l-0.074,0.013c-0.354,0.079-1.921,0.364-3.387-0.001
			c-0.339-0.079-0.666-0.205-0.978-0.359c0-0.004,0-0.008,0.006-0.009c0.258-0.611-0.093-1.288-0.863-1.586
			c-0.083-0.029-0.161-0.057-0.244-0.076c-0.797-0.195-1.678,0.081-2.069,0.674c-0.043,0.054-0.08,0.12-0.104,0.186
			c-0.257,0.61,0.092,1.292,0.857,1.587c0.077,0.031,0.164,0.05,0.243,0.074c0.753,0.187,1.577-0.052,2-0.578
			c0.332,0.168,0.679,0.289,1.035,0.378c1.126,0.275,2.256,0.206,2.967,0.112c-1.249,0.629-2.722,1.254-4.38,1.779
			c-0.146-0.146-0.332-0.272-0.549-0.357c-0.075-0.032-0.153-0.054-0.228-0.073c-0.738-0.183-1.555,0.074-1.915,0.621
			c-0.037,0.055-0.067,0.111-0.098,0.175c-0.238,0.566,0.086,1.192,0.795,1.461c0.074,0.034,0.151,0.052,0.226,0.076
			c0.734,0.178,1.554-0.076,1.914-0.62c0.037-0.057,0.068-0.118,0.092-0.178c0.123-0.28,0.108-0.579-0.037-0.84
			c4.68-1.483,7.789-3.747,9.018-4.755c-0.507,1.405-0.961,2.852-1.287,4.27c-0.548,0.386-3.375,2.439-4.405,4.854
			c-0.021,0.049-0.041,0.106-0.059,0.157c-0.772-0.103-1.566,0.183-1.938,0.747c-0.045,0.065-0.081,0.131-0.105,0.2
			c-0.276,0.64,0.092,1.349,0.9,1.666c0.083,0.029,0.17,0.056,0.261,0.08c0.831,0.202,1.757-0.08,2.172-0.705
			c0.043-0.065,0.079-0.129,0.104-0.2c0.276-0.64-0.092-1.353-0.899-1.662c-0.039-0.019-0.081-0.028-0.122-0.041
			c0.025-0.048,0.036-0.103,0.055-0.155c0.546-1.278,1.639-2.477,2.613-3.355c0.479-0.437,0.93-0.796,1.254-1.041
			c0.024-0.022,0.048-0.037,0.073-0.056c-0.569,2.683-0.668,5.249,0.097,7.302c-0.422,0.137-0.781,0.384-1.004,0.724
			c-0.049,0.07-0.086,0.14-0.122,0.215c-0.293,0.705,0.104,1.489,0.984,1.825c0.099,0.038,0.19,0.069,0.293,0.095
			c0.912,0.222,1.928-0.095,2.382-0.776c0.047-0.069,0.085-0.14,0.113-0.218c0.302-0.7-0.101-1.486-0.982-1.825
			c-0.092-0.032-0.189-0.065-0.288-0.089c-0.331-0.078-0.678-0.087-1.002-0.039c-0.778-2.075-0.63-4.759-0.004-7.553
			c0.059-0.047,0.072-0.117,0.042-0.168c0.011-0.066,0.028-0.13,0.048-0.201c0.692,0.518,2.717,2.166,3.51,4.372
			c-0.286,0.122-0.544,0.31-0.702,0.553c-0.044,0.064-0.079,0.125-0.104,0.191c-0.258,0.59,0.084,1.253,0.831,1.544
			c0.085,0.029,0.167,0.051,0.243,0.069c0.772,0.192,1.64-0.069,2.015-0.648c0.042-0.061,0.078-0.121,0.102-0.186
			c0.252-0.595-0.085-1.257-0.837-1.546c-0.08-0.028-0.153-0.056-0.24-0.074c-0.31-0.08-0.636-0.076-0.942-0.016
			c-0.93-2.532-3.357-4.307-3.792-4.61c0.35-1.409,0.821-2.836,1.341-4.219c0.024-0.032,0.036-0.069,0.037-0.103
			c0.258-0.676,0.526-1.348,0.802-1.992c0.592-1.399,1.216-2.706,1.792-3.862c-0.1,0.633-0.256,1.973-0.104,3.532
			c0.221,2.151,1.028,4.717,3.485,6.318c0.056,0.034,0.129,0.043,0.198,0.023c0.066-0.018,0.115-0.06,0.128-0.116
			c0-0.01,0.299-1.596,0.042-3.664c-0.255-2.039-1.056-4.555-3.253-6.482l-0.057-0.209l-0.146,0.028
			c0.289-0.57,0.568-1.102,0.827-1.568c0.034-0.075,0.072-0.141,0.114-0.216c0.938,0.21,1.934-0.186,2.241-0.905
			c0.256-0.602-0.048-1.227-0.692-1.564c0.282-0.4,0.516-0.825,0.697-1.259c0.864-2.034,0.778-4.223,0.749-4.708
			c1.075-1.186,2.086-2.449,3.02-3.724c-0.054,1.373,0.067,4.652,2.037,8.222c-0.416,0.13-0.751,0.392-0.905,0.747
			c-0.275,0.644,0.184,1.33,1.021,1.534c0.839,0.206,1.731-0.147,2.009-0.791c0.273-0.641-0.187-1.332-1.018-1.535
			c-0.244-0.063-0.484-0.067-0.722-0.043c-0.698-1.267-1.167-2.492-1.479-3.612c0.501,0.536,1.461,1.366,2.863,1.716
			c0.139,0.032,0.287,0.062,0.434,0.084c-0.203,0.667,0.272,1.343,1.136,1.554c0.901,0.224,1.873-0.159,2.173-0.859
			c0.293-0.69-0.202-1.438-1.108-1.662c-0.819-0.2-1.688,0.1-2.064,0.678c-0.156-0.02-0.302-0.052-0.451-0.085
			c-0.971-0.236-1.735-0.746-2.25-1.208c-0.254-0.224-0.451-0.438-0.593-0.592c-0.062-0.08-0.109-0.142-0.141-0.187l-0.037-0.046
			l-0.011-0.021c-0.033-0.036-0.074-0.06-0.117-0.068c-0.135-0.589-0.231-1.144-0.294-1.645c-0.096-0.856-0.108-1.572-0.091-2.064
			c0.006-0.248,0.019-0.441,0.032-0.57c0.007-0.07,0.011-0.118,0.011-0.149c0.361-0.5,0.703-1,1.042-1.495
			c1.133-1.688,2.104-3.317,2.886-4.699c-0.411,1.672-0.6,4.565,1.647,7.606c0.036,0.049,0.097,0.076,0.177,0.076
			c0.072,0,0.134-0.038,0.171-0.084c-0.001-0.008,0.098-0.163,0.222-0.452c0.475-1.114,1.332-4.256-1.272-8.515l-0.007-0.061
			l-0.025,0c-0.012-0.015-0.019-0.029-0.03-0.046c-0.013-0.015-0.033-0.023-0.043-0.038c0.294-0.551,0.538-1.031,0.733-1.423
			c0.398,0.411,0.826,0.691,1.333,1.04c0.835,0.576,1.247,0.789,1.756,0.91c0.215,0.057,0.44,0.094,0.723,0.136
			c0.446,0.071,0.857,0.182,1.297,0.251c0.19,0.03,0.385,0.044,0.585,0.053c0.086,0.458,0.214,1.087,0.405,1.862l-0.021,0.008
			l0.026,0.035c0.19,0.788,0.435,1.72,0.758,2.781l-0.023-0.015c-0.289,0.536-0.562,1.068-0.839,1.605
			c-0.184-0.024-0.478-0.023-0.815,0.107c-0.469,0.177-0.971,0.601-1.344,1.482c-0.068,0.149-0.123,0.313-0.182,0.496
			c-0.76,2.455-0.191,4.383-0.185,4.391c0.02,0.05,0.062,0.099,0.134,0.113c0.062,0.012,0.14-0.001,0.19-0.038
			c0.012-0.013,1.639-1.219,2.551-3.144c0.042-0.094,0.085-0.188,0.127-0.28c0.361-0.846,0.466-1.555,0.422-2.078
			c-0.024-0.267-0.083-0.481-0.185-0.647c-0.065-0.123-0.157-0.215-0.27-0.281c0.192-0.383,0.392-0.765,0.59-1.144
			c0.347,1.116,0.77,2.353,1.286,3.682l-1.238,2.871c-0.485,0.195-1.988,0.99-3.188,3.543c-0.06,0.139-0.128,0.283-0.188,0.425
			c-1.201,2.816-0.821,4.885-0.815,4.899c0.008,0.055,0.061,0.101,0.128,0.121c0.074,0.018,0.152-0.001,0.209-0.042
			c0.006-0.004,2.703-2.128,3.799-4.271c0.209-0.396,0.385-0.779,0.544-1.136c0.331-0.775,0.525-1.471,0.539-2.064
			c0.005-0.55-0.165-1.026-0.57-1.399l1.018-2.348c0.329,0.844,0.702,1.727,1.112,2.631l-0.006,0.006
			c0.006,0,0.006,0.004,0.011,0.009c0.563,1.23,1.187,2.515,1.903,3.835l-0.072,0.004c0.099,1.271,0.172,2.543,0.209,3.812
			c0.017,0.313,0.052,1.075,0.089,1.778c0.018,0.309,0.024,0.598,0.029,0.822c-0.285-0.007-0.573,0.069-0.812,0.2
			c-0.344,0.182-0.624,0.466-0.769,0.815c-0.15,0.356-0.143,0.711-0.008,1.004c0.136,0.299,0.411,0.542,0.804,0.639
			c0.383,0.092,0.794,0.019,1.131-0.158c0.34-0.188,0.616-0.471,0.763-0.821c0.154-0.354,0.147-0.706,0.013-0.998
			c-0.134-0.301-0.409-0.547-0.8-0.645c-0.037-0.009-0.086-0.01-0.131-0.015c0.052-0.232,0.095-0.527,0.115-0.844
			c0.053-0.696,0.058-1.469,0.046-1.788c-0.031-0.989-0.091-1.982-0.154-2.978c0.521,0.943,1.089,1.904,1.703,2.875l-0.043,0.034
			c0.042,0.032,0.085,0.07,0.122,0.101c1.976,3.118,4.403,6.347,7.383,9.487c-1.474-1.1-2.847-1.676-3.866-1.928
			c-0.421-0.102-0.789-0.154-1.083-0.163c-0.3-0.01-0.512,0.009-0.69,0.089c-0.283,0.141-0.614,0.2-0.992,0.29
			c-0.38,0.089-0.801,0.215-1.221,0.512c-0.211,0.15-0.345,0.317-0.412,0.48c-0.086,0.206-0.079,0.401-0.078,0.57
			c0.009,0.159,0.022,0.299-0.009,0.361l-0.054,0.059c-0.061,0.038-0.143,0.064-0.258,0.094c-0.165,0.042-0.403,0.08-0.639,0.219
			c-0.246,0.134-0.472,0.358-0.674,0.746c-0.039,0.072-0.074,0.136-0.098,0.202c-0.094,0.209-0.129,0.378-0.11,0.529
			c0.01,0.226,0.134,0.38,0.232,0.506c0.102,0.131,0.188,0.238,0.22,0.406c0.008,0.033,0,0.07-0.02,0.122
			c-0.036,0.087-0.133,0.206-0.244,0.344c-0.109,0.137-0.233,0.296-0.306,0.482c-0.104,0.244-0.123,0.537,0.061,0.859
			c0.191,0.322,0.57,0.662,1.236,1.051c0.714,0.415,1.829,0.769,3.071,1.08c-0.753,0.049-1.253,0.068-1.72,0.119
			c-0.556,0.056-1.06,0.153-1.847,0.387c-0.802,0.232-1.353,0.491-1.75,0.761c-0.397,0.275-0.643,0.561-0.831,0.844
			c-0.032,0.052-0.061,0.103-0.082,0.149c-0.06,0.135-0.06,0.258-0.025,0.365c0.055,0.158,0.179,0.262,0.239,0.35
			c0.069,0.084,0.085,0.125,0.067,0.2c-0.067,0.186-0.08,0.318-0.042,0.438c0.036,0.122,0.097,0.202,0.172,0.341
			c0.015,0.047,0.016,0.108-0.019,0.192c-0.086,0.204-0.362,0.479-0.533,0.747c-0.02,0.033-0.036,0.061-0.049,0.097
			c-0.078,0.191-0.042,0.354-0.004,0.533c0.028,0.177,0.065,0.386,0.033,0.714c-0.03,0.316,0.136,0.574,0.388,0.745
			c0.256,0.173,0.587,0.281,0.917,0.363c0.257,0.063,0.519,0.114,0.753,0.15c0.055,0.014,0.118,0.024,0.166,0.039
			c0.306,0.074,0.446,0.164,0.581,0.289c0.134,0.123,0.251,0.295,0.446,0.495c0.171,0.179,0.36,0.271,0.544,0.308
			c0.173,0.047,0.318,0.056,0.485,0.093c0.123,0.034,0.25,0.075,0.41,0.164c0.171,0.088,0.385,0.186,0.653,0.253
			c0.412,0.1,0.937,0.12,1.639-0.048c0.705-0.17,1.597-0.521,2.773-1.167c0.794-0.433,1.59-0.997,2.341-1.6
			c-0.064,0.131-0.127,0.256-0.187,0.388c-0.142,0.331-0.265,0.677-0.356,1.026c-0.508,1.899-0.504,3.093-0.204,3.901
			c0.294,0.801,0.9,1.204,1.482,1.465c0.273,0.126,0.445,0.215,0.549,0.285c0.154,0.102,0.166,0.141,0.247,0.231
			c0.078,0.094,0.213,0.207,0.499,0.356c0.198,0.103,0.368,0.258,0.558,0.417c0.189,0.148,0.403,0.311,0.708,0.382
			c0.106,0.029,0.223,0.046,0.344,0.047C131.569,221.119,131.701,221.101,131.844,221.074"/>
	</defs>
	<use xlink:href="#SVGID_1_"  overflow="visible" fill="#FFFFFF"/>
	<clipPath id="SVGID_2_">
		<use xlink:href="#SVGID_1_"  overflow="visible"/>
	</clipPath>
	
		<rect x="-388.235" y="-236.088" transform="matrix(-1 -0.0036 0.0036 -1 -236.147 -205.7905)" clip-path="url(#SVGID_2_)" fill="#FFFFFF" width="539.952" height="266.811"/>
	<g opacity="0.11" clip-path="url(#SVGID_2_)">
		<g>
			<defs>
				
					<rect id="SVGID_3_" x="-390.884" y="-236.103" transform="matrix(1 0.0036 -0.0036 1 -0.376 0.4406)" width="536.606" height="263.761"/>
			</defs>
			<use xlink:href="#SVGID_3_"  overflow="visible" fill="#FFFFFF"/>
			<clipPath id="SVGID_4_">
				<use xlink:href="#SVGID_3_"  overflow="visible"/>
			</clipPath>
			
				<rect x="-390.884" y="-236.103" transform="matrix(-1 -0.0036 0.0036 -1 -244.793 -208.884)" clip-path="url(#SVGID_4_)" fill="#FFFFFF" width="536.598" height="263.763"/>
		</g>
	</g>
</g>
</svg>
